Coordinates
version=1
nRows=17
nColumns=24
inDegrees=yes

Units are S.I. units (second, meters, Newtons, ...)
Angles are in degrees.

endheader
time	pelvis_tilt	pelvis_list	pelvis_rotation	pelvis_tx	pelvis_ty	pelvis_tz	hip_flexion_r	hip_adduction_r	hip_rotation_r	knee_angle_r	ankle_angle_r	subtalar_angle_r	mtp_angle_r	hip_flexion_l	hip_adduction_l	hip_rotation_l	knee_angle_l	ankle_angle_l	subtalar_angle_l	mtp_angle_l	lumbar_extension	lumbar_bending	lumbar_rotation
      0.45400000	      1.02040792	      0.33818120	      3.00898261	     -0.78046123	      0.99200018	      0.29415748	     23.85019683	      1.80587244	     -1.80901247	     -9.85107006	      4.15577427	    -13.25289981	     -0.37253018	    -16.96885108	      3.89038897	      1.57778330	     -5.51339742	      9.64637988	     -2.21238357	      0.49573186	     -3.67860800	      2.14388304	     -1.99903531
      0.45816667	      0.96224766	      0.34697241	      3.04806239	     -0.77434975	      0.99123040	      0.29436101	     23.77323735	      1.87345533	     -1.86039656	     -9.80516303	      4.01735786	    -13.18028245	     -0.53525647	    -16.81631191	      3.83800618	      1.28662052	     -6.42436994	      9.88613600	     -1.66861333	      0.67781131	     -3.53918960	      2.12677150	     -2.02258781
      0.46233333	      0.93531751	      0.33991197	      3.09162293	     -0.76819515	      0.99056198	      0.29455323	     23.64568548	      1.96039270	     -1.87584940	     -9.79396607	      3.81056136	    -13.17712840	     -0.65428988	    -16.68937663	      3.76588109	      1.06028424	     -7.34706082	     10.05326702	     -1.18129497	      0.87206554	     -3.43345443	      2.14384897	     -2.09847267
      0.46650000	      0.90659480	      0.33460255	      3.12535863	     -0.76201240	      0.98992431	      0.29476165	     23.52277524	      2.04956282	     -1.87557470	     -9.84635247	      3.56923444	    -13.21534925	     -0.73625759	    -16.53557691	      3.69670109	      0.82704440	     -8.31325447	     10.19268682	     -0.74319259	      1.08595404	     -3.31897574	      2.15619659	     -2.14693106
      0.47066667	      0.94836076	      0.27184939	      3.14123153	     -0.75577148	      0.98940614	      0.29502215	     23.29874963	      2.21967530	     -1.80073606	     -9.90086047	      3.22912496	    -13.51651623	     -0.94755758	    -16.43622951	      3.55735664	      0.52089637	     -9.31644646	     10.28493522	     -0.25680205	      2.11541503	     -3.29955803	      2.24730764	     -2.12282493
      0.47483333	      0.85901116	      0.27825186	      3.16113098	     -0.74956280	      0.98874487	      0.29524978	     23.27394304	      2.29216643	     -1.79395953	    -10.12025294	      2.93665205	    -13.49217855	     -0.95634954	    -16.15129814	      3.50539518	      0.31725359	    -10.40548970	     10.32918646	      0.08039708	      2.33093827	     -3.11245360	      2.23971377	     -2.23784129
      0.47900000	      0.83433492	      0.23369133	      3.19634261	     -0.74328514	      0.98822491	      0.29547452	     23.12649842	      2.42194867	     -1.74820590	    -10.26781123	      2.48299749	    -13.60846677	     -0.94533938	    -15.92365854	      3.38673998	      0.13499727	    -11.51414867	     10.31725227	      0.42506448	      2.53634996	     -2.99114796	      2.29488679	     -2.25165012
      0.48316667	      0.82116300	      0.17904377	      3.17922534	     -0.73700823	      0.98772658	      0.29580187	     23.00130835	      2.58674882	     -1.62979504	    -10.52643414	      2.09586550	    -13.92759877	     -0.89707415	    -15.66404700	      3.25508425	     -0.18358156	    -12.69714598	     10.29010277	      0.87017195	      2.90193847	     -2.89730298	      2.37219967	     -2.28337567
      0.48733333	      0.82416259	      0.08593419	      3.19687833	     -0.73066655	      0.98733156	      0.29609129	     22.81218579	      2.78311806	     -1.50013912	    -10.72092992	      1.59088873	    -14.37514455	     -0.76350654	    -15.41274934	      3.07291137	     -0.40359001	    -13.88713323	     10.09951754	      1.22632085	      3.68522071	     -2.80107468	      2.49831928	     -2.27056708
      0.49150000	      0.85651859	      0.00921986	      3.16624364	     -0.72436966	      0.98697735	      0.29646335	     22.60230994	      2.98360844	     -1.27460789	    -10.94409665	      0.97148468	    -14.83208940	     -0.43627647	    -15.15557773	      2.91478493	     -0.66207396	    -15.14033692	      9.93954006	      1.52124561	      5.40180238	     -2.76696627	      2.58998492	     -2.26291377
      0.49566667	      0.77871505	     -0.05642339	      3.18595743	     -0.71808061	      0.98653144	      0.29673093	     22.56307138	      3.12821548	     -1.20089814	    -11.30931959	      0.51272255	    -15.18851908	      0.17534873	    -14.73874972	      2.77466113	     -0.75894319	    -16.44862581	      9.59729419	      1.59423853	      8.40544472	     -2.57811005	      2.67665988	     -2.20187527
      0.49983333	      0.72968296	     -0.12395783	      3.15559305	     -0.71177925	      0.98612611	      0.29707952	     22.50860547	      3.28876678	     -1.09308853	    -11.71634441	      0.06710377	    -15.31515493	      0.20647575	    -14.31700803	      2.62911370	     -0.95497151	    -17.82357820	      9.20875838	      1.83805961	      8.56982006	     -2.43002582	      2.76530400	     -2.21704480
      0.50400000	      0.68937282	     -0.20498363	      3.14234939	     -0.70549490	      0.98579077	      0.29741588	     22.42824700	      3.45844714	     -0.96379701	    -12.09382215	     -0.47621856	    -15.56345524	      0.22251948	    -13.86433051	      2.46712757	     -1.08492173	    -19.25439797	      8.79284407	      1.98694698	      8.72383298	     -2.28978833	      2.86283442	     -2.16304004
      0.50816667	      0.67038560	     -0.33177826	      3.09635454	     -0.69924743	      0.98548124	      0.29785470	     22.34854750	      3.70101963	     -0.75041448	    -12.53546722	     -0.91448941	    -16.14683052	      0.25352901	    -13.37437034	      2.23906636	     -1.32537217	    -20.78454981	      8.35623827	      2.25679413	      9.09855171	     -2.19299588	      3.02315060	     -2.11732664
      0.51233333	      0.63646462	     -0.46713305	      3.07144642	     -0.69298211	      0.98522568	      0.29824232	     22.25911585	      3.93892200	     -0.53296560	    -12.92826785	     -1.38191068	    -16.64986973	      0.49487392	    -12.84775102	      2.00977738	     -1.45318366	    -22.31732290	      7.65151661	      2.24298627	     13.32321876	     -2.06168240	      3.19669116	     -2.01150396
      0.51650000	      0.61891855	     -0.59359718	      3.04917249	     -0.68676006	      0.98498128	      0.29861958	     22.20164726	      4.14531673	     -0.44355890	    -13.42364160	     -1.77222494	    -16.79503058	      0.49129490	    -12.27565232	      1.77435576	     -1.61020620	    -23.95525374	      6.98543281	      2.45033675	     13.38934957	     -1.95576189	      3.34842642	     -1.96751348
      0.52066667	      0.61484274	     -0.76837099	      3.01053145	     -0.68058116	      0.98477848	      0.29908763	     22.12527707	      4.43062020	     -0.23027624	    -13.92115204	     -2.06788472	    -17.39026553	      0.46828295	    -11.66708135	      1.47342754	     -1.80502959	    -25.66482854	      6.27772359	      2.65687503	     13.70395296	     -1.87935544	      3.56024083	     -1.89108418
